<svg xmlns="http://www.w3.org/2000/svg" width="125" height="95.326" viewBox="0 0 125 95.326">
  <g id="Group_13271" data-name="Group 13271" transform="translate(-1653 -361.999)">
    <g id="Group_32632" data-name="Group 32632">
      <path id="Path_14693" data-name="Path 14693" d="M504.156,202.227v23.428a3.644,3.644,0,0,1-3.644,3.644H476.878a27.216,27.216,0,0,1-20.819-9.656c-.065-.077-.13-.155-.2-.234a26.044,26.044,0,0,1-1.591-2.12l-.141-.2A27.282,27.282,0,0,1,475.07,174.8l.363-.022a27.436,27.436,0,0,1,28.692,26.12q.031.661.03,1.322Z" transform="translate(1234.504 187.248)" fill="#fff"/>
      <g id="Group_12580" data-name="Group 12580" transform="translate(1703.834 372.951)">
        <path id="Path_14694" data-name="Path 14694" d="M488.393,209.236a16,16,0,0,0-2.481,3.609,38.467,38.467,0,0,0-1.938,4.322q-.794,2.125-1.607,4.642-.291.995-.654,2.143t-.395,1.248a.888.888,0,0,1-.2.358c-.023.02-.083.024-.094,0,0,0,.081.233.226.29a.225.225,0,0,0,.189-.02,5.155,5.155,0,0,0,.442-1,101.818,101.818,0,0,1,5.488-12.855c1.479-2.417,2.021-2.746,2.021-2.746h0a3.015,3.015,0,0,1,1.274-1.371A4.171,4.171,0,0,0,488.393,209.236Z" transform="translate(-477.252 -194.765)" fill="#24a8d8"/>
        <path id="Path_14695" data-name="Path 14695" d="M478.369,215.721a.484.484,0,0,1-.246-.286.731.731,0,0,1-.045-.26,2.3,2.3,0,0,1,.056-.35l7.129-29.725a.37.37,0,0,0-.466-.44l-3.916,1.184a.686.686,0,0,0-.469.5l-5.778,24.588a6.116,6.116,0,0,0-.3,1.872,5.313,5.313,0,0,0,.369,2.021,3.657,3.657,0,0,0,.968,1.425,1.909,1.909,0,0,0,1.263.517,1.828,1.828,0,0,0,1.579-1.053A.223.223,0,0,1,478.369,215.721Z" transform="translate(-474.334 -184.644)" fill="#24a8d8"/>
        <path id="Path_14696" data-name="Path 14696" d="M494.569,224.246a8.092,8.092,0,0,1,.226-2.88l2.1-7.9a11.743,11.743,0,0,0,.363-2.731,3.988,3.988,0,0,0-.508-2.147,1.774,1.774,0,0,0-1.62-.8,2.7,2.7,0,0,0-.442.038h0l-.077.038c-.026.014-.051.027-.073.042l-.072.044-.06.04-.035.025a.785.785,0,0,0-.073.056l-.036.029-.064.053a.829.829,0,0,0-.061.056c-.02.021-.056.056-.086.083l-.042.043c-.026.029-.052.056-.077.086l-.037.043c-.041.049-.08.1-.116.146l-.039.053-.019.028c-.016.023-.032.045-.047.067l-.026.039c-.047.073-.087.137-.12.194l-.019.033c-.06.109-.091.178-.091.178-.006.028-.015.056-.022.081a.233.233,0,0,1-.013.039c-.01.026-.023.068-.056.2-.029.116-.047.178-.064.257l-2.514,9.6q-.236,1.15-.363,1.9a8.472,8.472,0,0,0-.127,1.372,4.042,4.042,0,0,0,1.03,2.876,4.647,4.647,0,0,0,3.163,1.085,8.36,8.36,0,0,0,6.395-3.374c.2-.247.023-.739-.237-.554a12.556,12.556,0,0,1-4.164,2.063C495.208,225.028,494.757,224.6,494.569,224.246Z" transform="translate(-481.277 -194.734)" fill="#24a8d8"/>
      </g>
    </g>
    <g id="Hahalolo" transform="translate(1653 434.41)" style="isolation: isolate">
      <g id="Group_12978" data-name="Group 12978" transform="translate(0)" style="isolation: isolate">
        <path id="Path_18331" data-name="Path 18331" d="M419.6,282.928v21.189h-2.634v-9.6H406.189v9.6h-2.6V282.928h2.6V292.4h10.776v-9.475Z" transform="translate(-403.586 -281.414)" fill="#fff"/>
        <path id="Path_18332" data-name="Path 18332" d="M434.651,305.263a6.834,6.834,0,0,1-2.286-2.967,11.736,11.736,0,0,1,.015-8.491,6.742,6.742,0,0,1,2.331-2.967,6.175,6.175,0,0,1,3.647-1.074,5.465,5.465,0,0,1,3.421,1,6.566,6.566,0,0,1,1.968,2.391h.212v-2.967h2.634v15.953h-2.634v-3.269h-.212a7.229,7.229,0,0,1-2.058,2.451,5.432,5.432,0,0,1-3.421,1.029A5.977,5.977,0,0,1,434.651,305.263Zm8.006-2.89a8.117,8.117,0,0,0,0-8.627,4.594,4.594,0,0,0-7.189-.016,7.236,7.236,0,0,0-1.226,4.3,7.36,7.36,0,0,0,1.226,4.344,4.582,4.582,0,0,0,7.189,0Z" transform="translate(-412.383 -283.438)" fill="#fff"/>
        <path id="Path_18333" data-name="Path 18333" d="M459.442,280.906h2.6v9.535h.242a5.539,5.539,0,0,1,1.968-2.346,5.66,5.66,0,0,1,3.33-.953,5.769,5.769,0,0,1,3.39.953,5.667,5.667,0,0,1,2.013,2.513,8.68,8.68,0,0,1,.651,3.375v9.535h-2.6v-9.2a4.917,4.917,0,0,0-1.226-3.6,4.761,4.761,0,0,0-6.478.061,4.816,4.816,0,0,0-1.286,3.541v9.2h-2.6Z" transform="translate(-421.132 -280.815)" fill="#fff"/>
        <path id="Path_18334" data-name="Path 18334" d="M487.755,305.263a6.839,6.839,0,0,1-2.285-2.967,11.74,11.74,0,0,1,.015-8.491,6.747,6.747,0,0,1,2.331-2.967,6.178,6.178,0,0,1,3.647-1.074,5.465,5.465,0,0,1,3.421,1,6.567,6.567,0,0,1,1.968,2.391h.212v-2.967H499.7v15.953h-2.634v-3.269h-.212a7.225,7.225,0,0,1-2.059,2.451,5.429,5.429,0,0,1-3.42,1.029A5.979,5.979,0,0,1,487.755,305.263Zm8.006-2.89a8.113,8.113,0,0,0,0-8.627,4.594,4.594,0,0,0-7.189-.016,7.236,7.236,0,0,0-1.226,4.3,7.36,7.36,0,0,0,1.226,4.344,4.582,4.582,0,0,0,7.189,0Z" transform="translate(-429.071 -283.438)" fill="#fff"/>
        <path id="Path_18335" data-name="Path 18335" d="M514.007,303.027a2.46,2.46,0,0,1-1.1-1.5,10.391,10.391,0,0,1-.227-2.407l.03-18.344h2.6v17.951a10.014,10.014,0,0,0,.106,1.711,1.371,1.371,0,0,0,.575.893,2.637,2.637,0,0,0,1.5.332,6.142,6.142,0,0,0,1.12-.091v1.877a10.752,10.752,0,0,1-1.937.151A4.933,4.933,0,0,1,514.007,303.027Z" transform="translate(-437.72 -280.777)" fill="#fff"/>
        <path id="Path_18336" data-name="Path 18336" d="M528.392,305.188a7.252,7.252,0,0,1-2.527-3.057,10.2,10.2,0,0,1,0-8.143,7.252,7.252,0,0,1,2.527-3.057,7.8,7.8,0,0,1,8.2,0A7.141,7.141,0,0,1,539.108,294a10.038,10.038,0,0,1,.833,4.056,9.9,9.9,0,0,1-.848,4.057,7.25,7.25,0,0,1-2.528,3.072,7.75,7.75,0,0,1-8.173,0Zm6.69-1.892a5.112,5.112,0,0,0,1.68-2.194,7.9,7.9,0,0,0,.576-3.073,6.992,6.992,0,0,0-1.3-4.329,4.2,4.2,0,0,0-3.542-1.725,4.281,4.281,0,0,0-2.619.817,5.113,5.113,0,0,0-1.68,2.2,7.815,7.815,0,0,0-.574,3.042,7.054,7.054,0,0,0,1.3,4.344,4.525,4.525,0,0,0,6.161.923Z" transform="translate(-441.744 -283.438)" fill="#fff"/>
        <path id="Path_18337" data-name="Path 18337" d="M553.094,303.027a2.464,2.464,0,0,1-1.105-1.5,10.4,10.4,0,0,1-.227-2.407l.03-18.344h2.6v17.951a10.056,10.056,0,0,0,.106,1.711,1.37,1.37,0,0,0,.576.893,2.634,2.634,0,0,0,1.5.332,6.138,6.138,0,0,0,1.12-.091v1.877a10.75,10.75,0,0,1-1.938.151A4.928,4.928,0,0,1,553.094,303.027Z" transform="translate(-450.373 -280.777)" fill="#fff"/>
        <path id="Path_18338" data-name="Path 18338" d="M567.477,305.188a7.257,7.257,0,0,1-2.527-3.057,10.2,10.2,0,0,1,0-8.143,7.257,7.257,0,0,1,2.527-3.057,7.8,7.8,0,0,1,8.2,0A7.141,7.141,0,0,1,578.194,294a10.037,10.037,0,0,1,.833,4.056,9.9,9.9,0,0,1-.848,4.057,7.252,7.252,0,0,1-2.528,3.072,7.751,7.751,0,0,1-8.174,0Zm6.691-1.892a5.111,5.111,0,0,0,1.68-2.194,7.9,7.9,0,0,0,.576-3.073,6.992,6.992,0,0,0-1.3-4.329,4.2,4.2,0,0,0-3.542-1.725,4.28,4.28,0,0,0-2.619.817,5.111,5.111,0,0,0-1.68,2.2,7.812,7.812,0,0,0-.575,3.042,7.054,7.054,0,0,0,1.3,4.344,4.525,4.525,0,0,0,6.161.923Z" transform="translate(-454.027 -283.438)" fill="#fff"/>
      </g>
    </g>
  </g>
</svg>
