<svg xmlns="http://www.w3.org/2000/svg" width="23" height="23" viewBox="0 0 23 23">
  <g id="Group_35184" data-name="Group 35184" transform="translate(-201.5 -754.5)">
    <g id="earth" transform="translate(-206.5 250.5)">
      <circle id="Ellipse_1340" data-name="Ellipse 1340" cx="11" cy="11" r="11" transform="translate(408.5 504.5)" fill="none" stroke="#555" stroke-miterlimit="10" stroke-width="1"/>
      <path id="Path_31852" data-name="Path 31852" d="M413.5,516.5c1.3-1.93,6.163-1.673,7,0,1,2-1.3,1.389-2,4-.9,3.372.651,5,0,5-3,0-2.676-2.8-4-5C413.376,518.635,412.657,517.749,413.5,516.5Z" transform="translate(-0.301 -1)" fill="none" stroke="#555" stroke-miterlimit="10" stroke-width="1"/>
      <path id="Path_31853" data-name="Path 31853" d="M431.5,516.5c-.363,0-7-2.289-7,0,0,1-1.364,1.588-1,3,.458,1.781,2.995,1.927,3,3,.006,1.365-2.275,2.729,0,3" transform="translate(-1 -1)" fill="none" stroke="#555" stroke-miterlimit="10" stroke-width="1"/>
      <path id="Path_31854" data-name="Path 31854" d="M423.67,505.1c-.48,2.02.66,3.23,1.83,4.4,1.4,1.4.86,3.37,2,3,1.81-.58,2.98-1.22,3-1" transform="translate(-1)" fill="none" stroke="#555" stroke-miterlimit="10" stroke-width="1"/>
      <path id="Path_31855" data-name="Path 31855" d="M409.5,511.5a4.7,4.7,0,0,0,6,0c1.189-1.189,4.559-1.881,4-3-1-2-4.63-2.375-4-3" fill="none" stroke="#555" stroke-miterlimit="10" stroke-width="1"/>
    </g>
  </g>
</svg>
